<mxfile host="app.diagrams.net" modified="2021-04-22T13:23:47.809Z" agent="5.0 (Windows NT 10.0; Win64; x64) AppleWebKit/537.36 (KHTML, like Gecko) Chrome/90.0.4430.85 Safari/537.36" etag="tTYHhfdq3fKDwuaw2NKx" version="14.6.0" type="github">
  <diagram id="NCtk11fWi7Got1G6-L-_" name="Page-1">
    <mxGraphModel dx="1038" dy="620" grid="0" gridSize="10" guides="1" tooltips="1" connect="1" arrows="1" fold="1" page="1" pageScale="1" pageWidth="850" pageHeight="1100" math="0" shadow="0">
      <root>
        <mxCell id="0" />
        <mxCell id="1" parent="0" />
        <mxCell id="HVW_2JeXxIrShy90RYxK-3" value="" style="edgeStyle=orthogonalEdgeStyle;rounded=0;orthogonalLoop=1;jettySize=auto;html=1;" edge="1" parent="1" source="HVW_2JeXxIrShy90RYxK-1" target="HVW_2JeXxIrShy90RYxK-2">
          <mxGeometry relative="1" as="geometry" />
        </mxCell>
        <mxCell id="HVW_2JeXxIrShy90RYxK-1" value="Do I use the stock screening criteria?" style="rounded=0;whiteSpace=wrap;html=1;" vertex="1" parent="1">
          <mxGeometry x="116" y="164" width="120" height="60" as="geometry" />
        </mxCell>
        <mxCell id="HVW_2JeXxIrShy90RYxK-5" value="" style="edgeStyle=orthogonalEdgeStyle;rounded=0;orthogonalLoop=1;jettySize=auto;html=1;" edge="1" parent="1" source="HVW_2JeXxIrShy90RYxK-2" target="HVW_2JeXxIrShy90RYxK-4">
          <mxGeometry relative="1" as="geometry" />
        </mxCell>
        <mxCell id="HVW_2JeXxIrShy90RYxK-2" value="Which combination of screening criteria?" style="whiteSpace=wrap;html=1;rounded=0;" vertex="1" parent="1">
          <mxGeometry x="116" y="304" width="120" height="60" as="geometry" />
        </mxCell>
        <mxCell id="HVW_2JeXxIrShy90RYxK-7" value="" style="edgeStyle=orthogonalEdgeStyle;rounded=0;orthogonalLoop=1;jettySize=auto;html=1;" edge="1" parent="1" source="HVW_2JeXxIrShy90RYxK-4" target="HVW_2JeXxIrShy90RYxK-6">
          <mxGeometry relative="1" as="geometry" />
        </mxCell>
        <mxCell id="HVW_2JeXxIrShy90RYxK-10" style="edgeStyle=orthogonalEdgeStyle;rounded=0;orthogonalLoop=1;jettySize=auto;html=1;exitX=1;exitY=0.75;exitDx=0;exitDy=0;entryX=0.5;entryY=0;entryDx=0;entryDy=0;" edge="1" parent="1" source="HVW_2JeXxIrShy90RYxK-4" target="HVW_2JeXxIrShy90RYxK-12">
          <mxGeometry relative="1" as="geometry">
            <mxPoint x="546" y="444" as="targetPoint" />
          </mxGeometry>
        </mxCell>
        <mxCell id="HVW_2JeXxIrShy90RYxK-4" value="Are Russell 3000 stocks better or non-Russell 3000?" style="whiteSpace=wrap;html=1;rounded=0;" vertex="1" parent="1">
          <mxGeometry x="316" y="304" width="120" height="60" as="geometry" />
        </mxCell>
        <mxCell id="HVW_2JeXxIrShy90RYxK-9" value="" style="edgeStyle=orthogonalEdgeStyle;rounded=0;orthogonalLoop=1;jettySize=auto;html=1;" edge="1" parent="1" source="HVW_2JeXxIrShy90RYxK-6" target="HVW_2JeXxIrShy90RYxK-12">
          <mxGeometry relative="1" as="geometry">
            <mxPoint x="516" y="474" as="targetPoint" />
          </mxGeometry>
        </mxCell>
        <mxCell id="HVW_2JeXxIrShy90RYxK-6" value="If Non-Russell 3000 stocks are better, are penny stocks or 3x leveraged ETFs better?" style="whiteSpace=wrap;html=1;rounded=0;" vertex="1" parent="1">
          <mxGeometry x="278" y="444" width="158" height="58" as="geometry" />
        </mxCell>
        <mxCell id="HVW_2JeXxIrShy90RYxK-14" value="" style="edgeStyle=orthogonalEdgeStyle;rounded=0;orthogonalLoop=1;jettySize=auto;html=1;" edge="1" parent="1" source="HVW_2JeXxIrShy90RYxK-12" target="HVW_2JeXxIrShy90RYxK-13">
          <mxGeometry relative="1" as="geometry" />
        </mxCell>
        <mxCell id="HVW_2JeXxIrShy90RYxK-12" value="Is the stock strategy criteria is met?" style="ellipse;whiteSpace=wrap;html=1;" vertex="1" parent="1">
          <mxGeometry x="512" y="434" width="120" height="80" as="geometry" />
        </mxCell>
        <mxCell id="HVW_2JeXxIrShy90RYxK-13" value="Do I buy it?" style="whiteSpace=wrap;html=1;" vertex="1" parent="1">
          <mxGeometry x="712" y="444" width="120" height="60" as="geometry" />
        </mxCell>
      </root>
    </mxGraphModel>
  </diagram>
</mxfile>
